# xmcd
# 
# Track frame offsets:
#     182
#     13912
#     37065
#     49972
#     66065
#     112237
#     124600
#     137685
#     162742
#     182417
#     206887
#     219795
#     242967
#     252295
#     281300
#     305452
# 
# Disc length: 4357
# 
# Revision: 5
# Processed by: cddbd v1.5.2PL0 Copyright (c) Steve Scherf et al.
# Submitted via: fre:ac v1.0.17
# 
DISCID=f3110310
DTITLE=John Lee Hooker - The Best of John Lee Hooker
DYEAR=1992
DGENRE=Blues
TTITLE0=One Bourbon, One Scotch, One Beer
TTITLE1=Decoration Day
TTITLE2=Back Biters and Syndicators
TTITLE3=Doin' the Shout
TTITLE4=Never Get Out of These Blues Alive
TTITLE5=I'm In The Mood
TTITLE6=Mr. Lucky
TTITLE7=I'm Bad Like Jesse James
TTITLE8=Shake It Baby
TTITLE9=Bluebird
TTITLE10=The Motor City Is Burning
TTITLE11=It Serves You Right to Suffer
TTITLE12=Think Twice Before You Go
TTITLE13=House Rent Boogie
TTITLE14=The Waterfront
TTITLE15=Bang, Bang, Bang, Bang
EXTD=1965-1974
EXTT0=
EXTT1=
EXTT2=
EXTT3=
EXTT4=
EXTT5=
EXTT6=
EXTT7=
EXTT8=
EXTT9=
EXTT10=
EXTT11=
EXTT12=
EXTT13=
EXTT14=
EXTT15=
PLAYORDER=
